<svg width="16" height="16" viewBox="0 0 16 16" fill="none" xmlns="http://www.w3.org/2000/svg">
<g opacity="0.2">
<path fill-rule="evenodd" clip-rule="evenodd" d="M2.22217 6.63889C2.22217 3.44791 4.80897 0.861115 7.99995 0.861115C11.1909 0.861115 13.7777 3.44791 13.7777 6.63889C13.7777 10.5389 8.72217 14.9444 8.46939 15.1322C8.19912 15.3634 7.80077 15.3634 7.5305 15.1322L7.5293 15.1312C7.2958 14.9288 2.22217 10.532 2.22217 6.63889ZM3.66661 6.63889C3.66661 9.05112 6.46161 12.1639 7.99995 13.6083C9.53828 12.1711 12.3333 9.05112 12.3333 6.63889C12.3333 4.24566 10.3932 2.30556 7.99995 2.30556C5.60671 2.30556 3.66661 4.24566 3.66661 6.63889ZM7.99995 3.75C6.40446 3.75 5.11106 5.0434 5.11106 6.63889C5.11106 8.23438 6.40446 9.52778 7.99995 9.52778C9.59544 9.52778 10.8888 8.23438 10.8888 6.63889C10.8888 5.0434 9.59544 3.75 7.99995 3.75ZM6.5555 6.63889C6.5555 7.43664 7.2022 8.08334 7.99995 8.08334C8.79769 8.08334 9.44439 7.43664 9.44439 6.63889C9.44439 5.84115 8.79769 5.19445 7.99995 5.19445C7.2022 5.19445 6.5555 5.84115 6.5555 6.63889Z" fill="#212121"/>
</g>
</svg>
