<svg width="22" height="22" viewBox="0 0 22 22" fill="none" xmlns="http://www.w3.org/2000/svg">
<g opacity="0.2" filter="url(#filter0_d_20_128)">
<path fill-rule="evenodd" clip-rule="evenodd" d="M15.6667 2.66667H6.33337C5.2288 2.66667 4.33337 3.5621 4.33337 4.66667V11.3333C4.33337 12.4379 5.2288 13.3333 6.33337 13.3333H15.6667C16.7713 13.3333 17.6667 12.4379 17.6667 11.3333V4.66667C17.6667 3.5621 16.7713 2.66667 15.6667 2.66667ZM15.3934 4.00001L11.4734 7.92001C11.3482 8.04621 11.1778 8.1172 11 8.1172C10.8223 8.1172 10.6519 8.04621 10.5267 7.92001L6.60671 4.00001H15.3934ZM15.6667 12C16.0349 12 16.3334 11.7015 16.3334 11.3333V4.94001L12.4134 8.86001C11.6325 9.63988 10.3676 9.63988 9.58671 8.86001L5.66671 4.94001V11.3333C5.66671 11.7015 5.96518 12 6.33337 12H15.6667Z" fill="#212121"/>
</g>
<defs>
<filter id="filter0_d_20_128" x="-1" y="0" width="24" height="24" filterUnits="userSpaceOnUse" color-interpolation-filters="sRGB">
<feFlood flood-opacity="0" result="BackgroundImageFix"/>
<feColorMatrix in="SourceAlpha" type="matrix" values="0 0 0 0 0 0 0 0 0 0 0 0 0 0 0 0 0 0 127 0" result="hardAlpha"/>
<feOffset dy="4"/>
<feGaussianBlur stdDeviation="2"/>
<feComposite in2="hardAlpha" operator="out"/>
<feColorMatrix type="matrix" values="0 0 0 0 0 0 0 0 0 0 0 0 0 0 0 0 0 0 0.25 0"/>
<feBlend mode="normal" in2="BackgroundImageFix" result="effect1_dropShadow_20_128"/>
<feBlend mode="normal" in="SourceGraphic" in2="effect1_dropShadow_20_128" result="shape"/>
</filter>
</defs>
</svg>
