<svg width="16" height="16" viewBox="0 0 16 16" fill="none" xmlns="http://www.w3.org/2000/svg">
<g opacity="0.2" clip-path="url(#clip0_20_147)">
<path d="M8.00004 14.6667C11.682 14.6667 14.6667 11.682 14.6667 8C14.6667 4.318 11.682 1.33333 8.00004 1.33333C4.31804 1.33333 1.33337 4.318 1.33337 8C1.33337 11.682 4.31804 14.6667 8.00004 14.6667Z" stroke="#212121" stroke-linecap="round" stroke-linejoin="round"/>
<path d="M9.55535 12.6667V11.4247C9.57201 11.218 9.54334 11.0113 9.47134 10.816C9.39886 10.6205 9.28518 10.443 9.13801 10.2953C10.5333 10.144 12 9.62866 12 7.26599C11.9987 6.65869 11.7594 6.07611 11.3333 5.64333C11.5361 5.1154 11.5217 4.52868 11.2933 4.01132C11.2933 4.01132 10.7687 3.85999 9.55535 4.65199C8.53587 4.38323 7.46415 4.38323 6.44468 4.65199C5.23134 3.85999 4.70668 4.01199 4.70668 4.01199C4.47866 4.52897 4.46428 5.11512 4.66668 5.64266C4.23768 6.07865 3.9981 6.66634 4.00001 7.27799C4.00001 9.62399 5.46668 10.1387 6.86201 10.3073C6.71644 10.4537 6.60372 10.6293 6.53134 10.8227C6.45949 11.0145 6.42993 11.2196 6.44468 11.424V12.6667" stroke="#212121" stroke-linecap="round" stroke-linejoin="round"/>
<path d="M6.44471 11.8013C5.11137 12.222 4.00004 11.8013 3.33337 10.5027" stroke="#212121" stroke-linecap="round" stroke-linejoin="round"/>
</g>
<defs>
<clipPath id="clip0_20_147">
<rect width="16" height="16" fill="white"/>
</clipPath>
</defs>
</svg>
