<svg width="16" height="16" viewBox="0 0 16 16" fill="none" xmlns="http://www.w3.org/2000/svg">
<g opacity="0.2">
<path fill-rule="evenodd" clip-rule="evenodd" d="M12.6048 8.60848C12.7229 8.63727 12.8436 8.66667 12.96 8.66667C13.9001 8.83526 14.5898 9.64504 14.6066 10.6V12.6C14.6093 13.1724 14.3666 13.7184 13.94 14.1C13.5729 14.427 13.0982 14.6074 12.6066 14.6067H12.3533C6.60516 13.897 2.07058 9.37884 1.33996 3.63333C1.26047 3.05739 1.43555 2.47537 1.81958 2.03886C2.20361 1.60234 2.75858 1.35454 3.33996 1.36H5.33996C6.32432 1.34569 7.1727 2.04985 7.33996 3.02C7.35996 3.17333 7.38662 3.32667 7.41996 3.47333C7.48725 3.76987 7.57411 4.06162 7.67996 4.34667C7.91297 4.98717 7.62542 5.70029 7.01329 6L6.73329 6.18667C7.09451 6.836 7.54314 7.43268 8.06662 7.96C8.59395 8.48349 9.19063 8.93212 9.83996 9.29333L9.98662 8.99333C10.2863 8.3812 10.9995 8.09366 11.64 8.32667C11.9244 8.43432 12.2163 8.52122 12.5133 8.58667C12.5436 8.59354 12.5741 8.60099 12.6048 8.60848ZM13.0666 13.1667C13.2105 13.0403 13.293 12.8582 13.2933 12.6667L13.28 10.5867C13.2871 10.2669 13.066 9.9871 12.7533 9.92C12.5711 9.89333 12.3911 9.86 12.2133 9.82C11.8563 9.73899 11.5046 9.63659 11.16 9.51333L10.7466 10.4467C10.6714 10.6084 10.5346 10.7333 10.3666 10.7933C10.2043 10.86 10.0223 10.86 9.85996 10.7933C7.80479 9.83387 6.15276 8.18184 5.19329 6.12667C5.11862 5.96583 5.1111 5.78186 5.17241 5.61546C5.23371 5.44907 5.35878 5.31395 5.51996 5.24L6.45329 4.80667C6.32613 4.47012 6.22364 4.12476 6.14662 3.77333C6.10662 3.59556 6.07329 3.41556 6.04662 3.23333C5.97953 2.92058 5.69975 2.69955 5.37996 2.70667H3.37996C3.18847 2.70691 3.00634 2.78948 2.87996 2.93333C2.75207 3.08514 2.69185 3.28266 2.71329 3.48C3.34743 8.61905 7.38398 12.6748 12.52 13.3333C12.7175 13.3572 12.916 13.2967 13.0666 13.1667Z" fill="#212121"/>
</g>
</svg>
